<mxfile host="Electron" agent="Mozilla/5.0 (Windows NT 10.0; Win64; x64) AppleWebKit/537.36 (KHTML, like Gecko) draw.io/24.7.17 Chrome/128.0.6613.36 Electron/32.0.1 Safari/537.36" version="24.7.17">
  <diagram name="Page-1" id="edf60f1a-56cd-e834-aa8a-f176f3a09ee4">
    <mxGraphModel dx="1600" dy="1091" grid="1" gridSize="10" guides="1" tooltips="1" connect="1" arrows="1" fold="1" page="1" pageScale="1" pageWidth="1100" pageHeight="850" background="none" math="0" shadow="0">
      <root>
        <mxCell id="0" />
        <mxCell id="1" parent="0" />
        <mxCell id="GazOILV1BmaAcozdJjYy-6" style="edgeStyle=orthogonalEdgeStyle;rounded=0;orthogonalLoop=1;jettySize=auto;html=1;exitX=0.5;exitY=1;exitDx=0;exitDy=0;fontFamily=Helvetica;fontSize=12;" edge="1" parent="1" source="GazOILV1BmaAcozdJjYy-2" target="GazOILV1BmaAcozdJjYy-5">
          <mxGeometry relative="1" as="geometry" />
        </mxCell>
        <mxCell id="GazOILV1BmaAcozdJjYy-2" value="How to connect Azure Arc enabled server?" style="whiteSpace=wrap;html=1;fontFamily=Helvetica;fontSize=12;" vertex="1" parent="1">
          <mxGeometry x="49" y="50" width="120" height="60" as="geometry" />
        </mxCell>
        <mxCell id="GazOILV1BmaAcozdJjYy-7" style="edgeStyle=orthogonalEdgeStyle;rounded=0;orthogonalLoop=1;jettySize=auto;html=1;exitX=0.5;exitY=1;exitDx=0;exitDy=0;entryX=0.5;entryY=0;entryDx=0;entryDy=0;fontFamily=Helvetica;fontSize=12;" edge="1" parent="1" source="GazOILV1BmaAcozdJjYy-5" target="GazOILV1BmaAcozdJjYy-9">
          <mxGeometry relative="1" as="geometry">
            <mxPoint x="100" y="310" as="targetPoint" />
          </mxGeometry>
        </mxCell>
        <mxCell id="GazOILV1BmaAcozdJjYy-8" value="No" style="edgeLabel;html=1;align=center;verticalAlign=middle;resizable=0;points=[];fontFamily=Helvetica;fontSize=12;" vertex="1" connectable="0" parent="GazOILV1BmaAcozdJjYy-7">
          <mxGeometry x="-0.2114" y="1" relative="1" as="geometry">
            <mxPoint as="offset" />
          </mxGeometry>
        </mxCell>
        <mxCell id="GazOILV1BmaAcozdJjYy-11" value="" style="edgeStyle=orthogonalEdgeStyle;rounded=0;orthogonalLoop=1;jettySize=auto;html=1;fontFamily=Helvetica;fontSize=12;" edge="1" parent="1" source="GazOILV1BmaAcozdJjYy-5" target="GazOILV1BmaAcozdJjYy-10">
          <mxGeometry relative="1" as="geometry" />
        </mxCell>
        <mxCell id="GazOILV1BmaAcozdJjYy-22" value="Yes" style="edgeLabel;html=1;align=center;verticalAlign=middle;resizable=0;points=[];fontFamily=Helvetica;fontSize=12;" vertex="1" connectable="0" parent="GazOILV1BmaAcozdJjYy-11">
          <mxGeometry x="-0.15" y="1" relative="1" as="geometry">
            <mxPoint as="offset" />
          </mxGeometry>
        </mxCell>
        <mxCell id="GazOILV1BmaAcozdJjYy-5" value="Server require&lt;br&gt;&amp;nbsp;a Proxy?" style="rhombus;whiteSpace=wrap;html=1;rounded=0;shadow=1;labelBackgroundColor=none;strokeWidth=1;fontFamily=Helvetica;fontSize=10;align=center;rotation=0;" vertex="1" parent="1">
          <mxGeometry x="50" y="180" width="120" height="80" as="geometry" />
        </mxCell>
        <mxCell id="GazOILV1BmaAcozdJjYy-13" value="" style="edgeStyle=orthogonalEdgeStyle;rounded=0;orthogonalLoop=1;jettySize=auto;html=1;fontFamily=Helvetica;fontSize=12;" edge="1" parent="1" source="GazOILV1BmaAcozdJjYy-9" target="GazOILV1BmaAcozdJjYy-12">
          <mxGeometry relative="1" as="geometry" />
        </mxCell>
        <mxCell id="GazOILV1BmaAcozdJjYy-14" value="Yes" style="edgeLabel;html=1;align=center;verticalAlign=middle;resizable=0;points=[];fontFamily=Helvetica;fontSize=12;" vertex="1" connectable="0" parent="GazOILV1BmaAcozdJjYy-13">
          <mxGeometry x="-0.155" y="-1" relative="1" as="geometry">
            <mxPoint as="offset" />
          </mxGeometry>
        </mxCell>
        <mxCell id="GazOILV1BmaAcozdJjYy-16" value="" style="edgeStyle=orthogonalEdgeStyle;rounded=0;orthogonalLoop=1;jettySize=auto;html=1;fontFamily=Helvetica;fontSize=12;entryX=0;entryY=0.5;entryDx=0;entryDy=0;" edge="1" parent="1" source="GazOILV1BmaAcozdJjYy-9" target="GazOILV1BmaAcozdJjYy-18">
          <mxGeometry relative="1" as="geometry">
            <mxPoint x="230" y="489" as="targetPoint" />
          </mxGeometry>
        </mxCell>
        <mxCell id="GazOILV1BmaAcozdJjYy-17" value="No" style="edgeLabel;html=1;align=center;verticalAlign=middle;resizable=0;points=[];fontFamily=Helvetica;fontSize=12;" vertex="1" connectable="0" parent="GazOILV1BmaAcozdJjYy-16">
          <mxGeometry x="-0.35" y="-1" relative="1" as="geometry">
            <mxPoint as="offset" />
          </mxGeometry>
        </mxCell>
        <mxCell id="GazOILV1BmaAcozdJjYy-9" value="2nd Gen Firewall?" style="rhombus;whiteSpace=wrap;html=1;rounded=0;shadow=1;labelBackgroundColor=none;strokeWidth=1;fontFamily=Helvetica;fontSize=10;align=center;rotation=0;" vertex="1" parent="1">
          <mxGeometry x="50" y="459" width="120" height="80" as="geometry" />
        </mxCell>
        <mxCell id="GazOILV1BmaAcozdJjYy-24" value="" style="edgeStyle=orthogonalEdgeStyle;rounded=0;orthogonalLoop=1;jettySize=auto;html=1;fontFamily=Helvetica;fontSize=12;" edge="1" parent="1" source="GazOILV1BmaAcozdJjYy-10" target="GazOILV1BmaAcozdJjYy-23">
          <mxGeometry relative="1" as="geometry" />
        </mxCell>
        <mxCell id="GazOILV1BmaAcozdJjYy-25" value="No" style="edgeLabel;html=1;align=center;verticalAlign=middle;resizable=0;points=[];fontFamily=Helvetica;fontSize=12;" vertex="1" connectable="0" parent="GazOILV1BmaAcozdJjYy-24">
          <mxGeometry x="0.075" relative="1" as="geometry">
            <mxPoint as="offset" />
          </mxGeometry>
        </mxCell>
        <mxCell id="GazOILV1BmaAcozdJjYy-32" value="" style="edgeStyle=orthogonalEdgeStyle;rounded=0;orthogonalLoop=1;jettySize=auto;html=1;fontFamily=Helvetica;fontSize=12;exitX=0.5;exitY=1;exitDx=0;exitDy=0;entryX=0;entryY=0.5;entryDx=0;entryDy=0;" edge="1" parent="1" source="GazOILV1BmaAcozdJjYy-10" target="GazOILV1BmaAcozdJjYy-31">
          <mxGeometry relative="1" as="geometry" />
        </mxCell>
        <mxCell id="GazOILV1BmaAcozdJjYy-33" value="Yes" style="edgeLabel;html=1;align=center;verticalAlign=middle;resizable=0;points=[];fontFamily=Helvetica;fontSize=12;" vertex="1" connectable="0" parent="GazOILV1BmaAcozdJjYy-32">
          <mxGeometry x="-0.05" y="-3" relative="1" as="geometry">
            <mxPoint as="offset" />
          </mxGeometry>
        </mxCell>
        <mxCell id="GazOILV1BmaAcozdJjYy-10" value="Proxy with &lt;br&gt;URL Filtering?" style="rhombus;whiteSpace=wrap;html=1;rounded=0;shadow=1;labelBackgroundColor=none;strokeWidth=1;fontFamily=Helvetica;fontSize=10;align=center;strokeColor=default;verticalAlign=middle;fontColor=default;fillColor=default;rotation=0;" vertex="1" parent="1">
          <mxGeometry x="240" y="180" width="120" height="80" as="geometry" />
        </mxCell>
        <mxCell id="GazOILV1BmaAcozdJjYy-20" value="" style="edgeStyle=orthogonalEdgeStyle;rounded=0;orthogonalLoop=1;jettySize=auto;html=1;fontFamily=Helvetica;fontSize=12;entryX=0;entryY=0.5;entryDx=0;entryDy=0;" edge="1" parent="1" source="GazOILV1BmaAcozdJjYy-12" target="GazOILV1BmaAcozdJjYy-21">
          <mxGeometry relative="1" as="geometry">
            <mxPoint x="100" y="739" as="targetPoint" />
            <Array as="points">
              <mxPoint x="560" y="639" />
              <mxPoint x="560" y="639" />
            </Array>
          </mxGeometry>
        </mxCell>
        <mxCell id="GazOILV1BmaAcozdJjYy-12" value="2nd Gen Firewall&lt;br&gt;&amp;nbsp;with&lt;br&gt;URL Filtering?" style="rhombus;whiteSpace=wrap;html=1;rounded=0;shadow=1;labelBackgroundColor=none;strokeWidth=1;fontFamily=Helvetica;fontSize=10;align=center;rotation=0;" vertex="1" parent="1">
          <mxGeometry x="50" y="599" width="120" height="80" as="geometry" />
        </mxCell>
        <mxCell id="GazOILV1BmaAcozdJjYy-18" value="Use Azure Arc Gateway with no proxy&lt;div style=&quot;font-size: 12px;&quot;&gt;(Option 3)&lt;/div&gt;" style="rounded=0;whiteSpace=wrap;html=1;fontFamily=Helvetica;fontSize=12;" vertex="1" parent="1">
          <mxGeometry x="591" y="469" width="120" height="60" as="geometry" />
        </mxCell>
        <mxCell id="GazOILV1BmaAcozdJjYy-21" value="Use direct connection (Option 4)" style="rounded=0;whiteSpace=wrap;html=1;fontFamily=Helvetica;fontSize=12;" vertex="1" parent="1">
          <mxGeometry x="590" y="609" width="121" height="60" as="geometry" />
        </mxCell>
        <mxCell id="GazOILV1BmaAcozdJjYy-27" value="" style="edgeStyle=orthogonalEdgeStyle;rounded=0;orthogonalLoop=1;jettySize=auto;html=1;fontFamily=Helvetica;fontSize=12;entryX=0;entryY=0.5;entryDx=0;entryDy=0;" edge="1" parent="1" source="GazOILV1BmaAcozdJjYy-23" target="GazOILV1BmaAcozdJjYy-30">
          <mxGeometry relative="1" as="geometry">
            <mxPoint x="590" y="210" as="targetPoint" />
          </mxGeometry>
        </mxCell>
        <mxCell id="GazOILV1BmaAcozdJjYy-29" value="Yes" style="edgeLabel;html=1;align=center;verticalAlign=middle;resizable=0;points=[];fontFamily=Helvetica;fontSize=12;" vertex="1" connectable="0" parent="GazOILV1BmaAcozdJjYy-27">
          <mxGeometry x="-0.2908" y="2" relative="1" as="geometry">
            <mxPoint as="offset" />
          </mxGeometry>
        </mxCell>
        <mxCell id="GazOILV1BmaAcozdJjYy-23" value="2nd Gen Firewall&lt;br&gt;&amp;nbsp;with&lt;br&gt;URL Filtering?" style="rhombus;whiteSpace=wrap;html=1;rounded=0;shadow=1;labelBackgroundColor=none;strokeWidth=1;fontFamily=Helvetica;fontSize=10;align=center;rotation=0;" vertex="1" parent="1">
          <mxGeometry x="420" y="180" width="120" height="80" as="geometry" />
        </mxCell>
        <mxCell id="GazOILV1BmaAcozdJjYy-30" value="&lt;font style=&quot;font-size: 12px;&quot;&gt;Use Proxy connection / no Azure Arc Gateway&lt;/font&gt;&lt;div style=&quot;font-size: 12px;&quot;&gt;&lt;font style=&quot;font-size: 12px;&quot;&gt;(Option 1)&lt;/font&gt;&lt;/div&gt;" style="rounded=0;whiteSpace=wrap;html=1;strokeColor=default;align=center;verticalAlign=middle;fontFamily=Helvetica;fontSize=12;fontColor=default;fillColor=default;" vertex="1" parent="1">
          <mxGeometry x="591" y="190" width="120" height="60" as="geometry" />
        </mxCell>
        <mxCell id="GazOILV1BmaAcozdJjYy-31" value="Use Proxy connection with Azure Arc Gateway (Option 2)" style="whiteSpace=wrap;html=1;fontSize=12;fontFamily=Helvetica;rounded=0;shadow=1;labelBackgroundColor=none;strokeWidth=1;" vertex="1" parent="1">
          <mxGeometry x="591" y="330" width="120" height="60" as="geometry" />
        </mxCell>
      </root>
    </mxGraphModel>
  </diagram>
</mxfile>
